mtllib materials.mtl
v 0.0888931 -0.4131891 -0.09253171
v 0.1065839 -0.04930604 0.0224679
v 0.09386431 0.01836467 -0.01830175
v 0.0761735 -0.3455185 -0.1333014
v -0.0945162 -0.01550126 0.02085199
v -0.1072358 0.05216944 -0.01991769
v -0.089545 0.4160525 0.09508198
v -0.07682538 0.3483819 0.1358516
v 0.005975232 -0.07363963 0.01859616
v 0.06385829 -0.02211571 0.03846648
v 0.06451376 0.006026983 -0.03641719
v 0.006630704 -0.04549706 -0.0562875
v -0.04924363 -0.01929569 0.03853627
v -0.04858814 0.008846998 -0.0363474
v 0.009294912 0.06037092 -0.01647708
v 0.00863944 0.03222835 0.05840658
v 0.03670172 -0.1972369 -0.04060831
v 0.07087736 -0.1767398 -0.03715879
v 0.06696914 -0.163883 -0.07483409
v 0.03279351 -0.1843801 -0.0782836
v 0.01628719 -0.1653845 -0.02762086
v 0.01237898 -0.1525277 -0.06529615
v 0.04655461 -0.1320306 -0.06184663
v 0.05046283 -0.1448874 -0.02417134
v -0.06268431 0.1405302 0.06122861
v -0.02659854 0.1549144 0.07076336
v -0.01947267 0.1626228 0.0321654
v -0.05555846 0.1482387 0.02263065
v -0.07840179 0.1770498 0.06562024
v -0.07127592 0.1847582 0.02702228
v -0.03519015 0.1991423 0.03655703
v -0.042316 0.1914339 0.07515498
vn 0.9679053 0.03173222 -0.2493037
vn -0.9679055 -0.03173209 0.2493034
vn -0.05779694 -0.2982843 0.9527256
vn 0.05779694 0.2982843 -0.9527256
vn -0.9001318 -0.3361306 -0.2770901
vn 0.9001319 0.3361305 0.2770899
vn 0.6902357 -0.6793 -0.2492513
vn -0.6902357 0.6793 0.2492513
vn -0.008193523 -0.3517829 0.9360458
vn 0.008193523 0.3517829 -0.9360458
vn -0.7235383 -0.6440501 -0.2483789
vn 0.7235383 0.6440501 0.2483789
vn 0.5103633 -0.7963092 -0.3246863
vn -0.5103633 0.7963092 0.3246863
vn 0.09770548 -0.3214214 0.9418823
vn -0.09770548 0.3214214 -0.9418823
vn -0.8543905 -0.5124258 -0.08623791
vn 0.8543905 0.5124258 0.08623791
vn 0.3929368 -0.9129878 -0.1097905
vn -0.3929368 0.9129878 0.1097905
vn -0.1781465 -0.1927107 0.9649489
vn 0.1781465 0.1927107 -0.9649489
vn -0.9021444 -0.3596052 -0.2383687
vn 0.9021444 0.3596052 0.2383687
usemtl mat24
f 4//1 3//1 2//1 1//1
f 8//2 7//2 6//2 5//2
f 2//3 8//3 5//3 1//3
f 6//4 7//4 3//4 4//4
f 5//5 6//5 4//5 1//5
f 3//6 7//6 8//6 2//6
usemtl mat25
f 12//7 11//7 10//7 9//7
f 16//8 15//8 14//8 13//8
f 10//9 16//9 13//9 9//9
f 14//10 15//10 11//10 12//10
f 13//11 14//11 12//11 9//11
f 11//12 15//12 16//12 10//12
f 20//13 19//13 18//13 17//13
f 24//14 23//14 22//14 21//14
f 18//15 24//15 21//15 17//15
f 22//16 23//16 19//16 20//16
f 21//17 22//17 20//17 17//17
f 19//18 23//18 24//18 18//18
f 28//19 27//19 26//19 25//19
f 32//20 31//20 30//20 29//20
f 26//21 32//21 29//21 25//21
f 30//22 31//22 27//22 28//22
f 29//23 30//23 28//23 25//23
f 27//24 31//24 32//24 26//24
